<?xml version="1.0" encoding="UTF-8"?>
<svg id="Layer_1" data-name="Layer 1" xmlns="http://www.w3.org/2000/svg" viewBox="0 0 600 212">
  <defs>
    <style>
      .cls-1 {
        fill: #d88f1a;
      }

      .cls-1, .cls-2, .cls-3, .cls-4, .cls-5, .cls-6, .cls-7, .cls-8, .cls-9, .cls-10, .cls-11, .cls-12, .cls-13, .cls-14, .cls-15, .cls-16, .cls-17 {
        stroke-width: 0px;
      }

      .cls-2 {
        fill: #3a4a45;
      }

      .cls-18 {
        opacity: .31;
      }

      .cls-3 {
        fill: #f79b4c;
      }

      .cls-19 {
        opacity: .5;
      }

      .cls-4 {
        fill: #99abb1;
      }

      .cls-5 {
        fill: #173e44;
      }

      .cls-6 {
        fill: #1e4f5a;
      }

      .cls-7 {
        fill: #78c4c1;
      }

      .cls-8 {
        fill: #306d78;
      }

      .cls-9 {
        opacity: .65;
      }

      .cls-9, .cls-13 {
        fill: #fff;
      }

      .cls-20 {
        stroke: #00263e;
        stroke-miterlimit: 10;
      }

      .cls-20, .cls-12 {
        fill: #ccd4d8;
      }

      .cls-10 {
        fill: #ff8200;
      }

      .cls-11 {
        fill: #00263e;
      }

      .cls-14 {
        fill: #843c0b;
      }

      .cls-15 {
        fill: #5cb8b2;
      }

      .cls-16 {
        fill: #964c0b;
      }

      .cls-17 {
        fill: #275e69;
      }
    </style>
  </defs>
  <rect class="cls-11" width="600" height="212"/>
  <g class="cls-18">
    <polygon class="cls-12" points="470.46 139.32 470.53 138.69 469.15 138.54 468.29 137.4 470.52 137.65 470.59 137.02 467.76 136.71 466.44 134.96 468.61 134.69 470.81 136.5 471.21 136.01 469.48 134.58 470.89 134.41 471.97 135.29 472.37 134.8 471.76 134.3 472.99 134.14 472.91 133.51 471.68 133.67 472.15 133.03 471.64 132.65 470.81 133.78 469.4 133.95 470.73 132.14 470.22 131.77 468.53 134.06 466.36 134.33 467.21 132.31 469.88 131.32 469.65 130.72 467.55 131.51 468.11 130.2 469.41 129.71 469.19 129.12 468.45 129.39 468.93 128.25 468.34 128 467.86 129.15 467.54 128.42 466.96 128.68 467.52 129.95 466.97 131.26 466.07 129.21 465.49 129.46 466.63 132.07 465.78 134.08 464.46 132.34 464.92 129.53 464.3 129.43 463.93 131.64 463.07 130.51 463.3 129.13 462.67 129.03 462.54 129.81 461.79 128.82 461.29 129.2 462.04 130.19 461.25 130.11 461.18 130.74 462.56 130.89 463.42 132.02 461.19 131.78 461.12 132.41 463.95 132.72 465.27 134.47 463.1 134.74 460.9 132.93 460.5 133.42 462.23 134.85 460.82 135.02 459.74 134.14 459.34 134.63 459.95 135.13 458.72 135.29 458.8 135.92 460.03 135.76 459.56 136.4 460.07 136.78 460.9 135.65 462.31 135.48 460.98 137.28 461.49 137.66 463.18 135.37 465.35 135.1 464.5 137.11 461.84 138.11 462.06 138.71 464.16 137.92 463.61 139.23 462.3 139.72 462.52 140.31 463.26 140.04 462.78 141.18 463.37 141.42 463.85 140.28 464.17 141.01 464.75 140.75 464.19 139.48 464.74 138.17 465.64 140.22 466.23 139.96 465.08 137.36 465.93 135.34 467.26 137.09 466.79 139.89 467.41 140 467.78 137.79 468.64 138.92 468.41 140.3 469.04 140.4 469.17 139.62 469.92 140.61 470.42 140.22 469.68 139.24 470.46 139.32"/>
  </g>
  <g class="cls-19">
    <path class="cls-12" d="M5.17,133.57l-.54-2,1.68.45c.13.04.27-.04.31-.18.04-.13-.04-.27-.18-.31l-1.96-.52-1.02-3.81,2.79-2.79,3.81,1.02.52,1.96s.03.08.06.11c.06.06.15.09.24.06.13-.04.21-.17.18-.31l-.45-1.68,2,.54c.13.04.27-.04.31-.18.04-.13-.04-.27-.18-.31l-2-.54,1.23-1.23c.1-.1.1-.26,0-.35s-.26-.1-.35,0l-1.43,1.43-3.81-1.02-1.02-3.81,2.79-2.79,1.96.52c.13.04.27-.04.31-.18.04-.13-.04-.27-.18-.31l-1.68-.45,1.46-1.46c.1-.1.1-.26,0-.35s-.26-.1-.35,0l-1.46,1.46-.45-1.68c-.04-.13-.17-.21-.31-.18s-.21.17-.18.31l.52,1.96-2.79,2.79-3.81-1.02-1.02-3.81,1.43-1.43c.1-.1.1-.26,0-.35s-.26-.1-.35,0l-1.23,1.23-.54-2c-.04-.13-.17-.21-.31-.18-.13.04-.21.17-.18.31l.54,2-1.68-.45c-.13-.04-.27.04-.31.18-.02.09,0,.18.06.24.03.03.07.05.11.06l1.96.53,1.02,3.81-2.79,2.79-3.81-1.02-.52-1.96c-.04-.13-.17-.21-.31-.18s-.21.17-.18.31l.45,1.68-2-.54c-.13-.04-.27.04-.31.18-.02.09,0,.18.06.24.03.03.07.05.11.06l2,.54-1.23,1.23c-.1.1-.1.26,0,.35s.26.1.35,0l1.43-1.43,3.81,1.02,1.02,3.81-2.79,2.79-1.96-.52c-.13-.04-.27.04-.31.18s.04.27.18.31l1.68.45-1.46,1.46c-.1.1-.1.26,0,.35s.26.1.35,0l1.46-1.46.45,1.68s.03.08.06.11c.06.06.15.09.24.06.13-.04.21-.17.18-.31l-.52-1.96,2.79-2.79,3.81,1.02,1.02,3.81-1.43,1.43c-.1.1-.1.26,0,.35s.26.1.35,0l1.23-1.23.54,2s.03.08.06.11c.06.06.15.09.24.06.13-.04.21-.17.18-.31ZM3.31,126.65l-.87-3.25,3.25.87-2.38,2.38ZM5.82,123.79l-3.25-.87,2.38-2.38.87,3.25ZM4.6,120.18l-2.38,2.38-.87-3.25,3.25.87ZM.86,119.44l.87,3.25-3.25-.87,2.38-2.38h0ZM-1.65,122.3l3.25.87-2.38,2.38-.87-3.25ZM-.42,125.91l2.38-2.38.87,3.25-3.25-.87Z"/>
    <circle class="cls-12" cx="4.01" cy="116.39" r=".49"/>
    <circle class="cls-12" cx="8.56" cy="121.38" r=".49"/>
    <circle class="cls-12" cx="6.86" cy="127.71" r=".49"/>
    <circle class="cls-12" cx=".52" cy="129.41" r=".49"/>
  </g>
  <g class="cls-19">
    <path class="cls-12" d="M540.35,110.15l-2-.43-1.92-3.15,3.68-.09,1.44,1.45s.05.04.07.05c.12.06.26.05.36-.05.12-.12.12-.31,0-.43l-1.03-1.04,1.49-.04c.17,0,.3-.14.3-.31,0-.17-.14-.3-.31-.3l-1.49.04.98-1.09c.11-.12.1-.32-.02-.43-.12-.11-.32-.1-.43.02l-1.37,1.52-3.68.09,1.76-3.24,1.98-.52c.16-.04.26-.21.22-.37-.04-.16-.21-.26-.37-.22l-1.42.37.71-1.31c.08-.15.03-.33-.12-.41s-.33-.03-.41.12l-.71,1.31-.45-1.4c-.05-.16-.22-.25-.38-.2-.16.05-.25.22-.2.38l.63,1.94-1.76,3.24-1.92-3.15.54-1.97c.04-.16-.05-.33-.21-.37-.16-.04-.33.05-.37.21l-.38,1.42-.78-1.27c-.09-.14-.27-.19-.42-.1s-.19.27-.1.42l.78,1.27-1.44-.31c-.16-.04-.33.07-.36.23-.03.13.04.27.15.33.03.01.05.02.08.03l2,.43,1.92,3.15-3.68.09-1.44-1.45c-.12-.12-.31-.12-.43,0-.12.12-.12.31,0,.43l1.03,1.04-1.49.04c-.17,0-.3.14-.3.31,0,.11.07.21.16.26.05.02.1.04.15.04l1.49-.04-.98,1.09c-.11.12-.1.32.02.43.02.02.04.03.06.04.12.07.28.04.37-.06l1.37-1.52,3.68-.09-1.76,3.24-1.98.52c-.16.04-.26.21-.22.37.02.08.08.15.15.19.07.04.15.05.22.03l1.42-.37-.71,1.31c-.08.15-.03.33.12.41s.33.03.41-.12l.71-1.31.45,1.4c.03.08.08.14.14.17.07.04.16.05.24.02.16-.05.25-.22.2-.38l-.63-1.94,1.76-3.24,1.92,3.15-.54,1.97c-.04.14.03.28.15.35.02.01.04.02.07.03.16.04.33-.05.37-.21l.38-1.42.78,1.27s.07.08.11.11c.09.05.21.05.3,0,.14-.09.19-.27.1-.42l-.78-1.27,1.44.31c.16.04.33-.07.36-.23.04-.16-.07-.33-.23-.36Z"/>
  </g>
  <g>
    <g>
      <path class="cls-13" d="M121.52,62.23c-.74-1.48-1.78-2.46-3.1-2.89-2.39-.8-3.63-.8-6.03,0-1.31.44-2.35,1.41-3.1,2.91l-40.66,84.75c-.56,1.13-.65,2.25-.24,3.34h0c.4,1.07,1.16,1.9,2.27,2.45,1.14.57,2.26.63,3.33.15.99-.44,1.77-1.16,2.34-2.19l13.24-27.42h51.7l13.26,27.46c.55.98,1.33,1.7,2.32,2.14.48.21.97.32,1.47.32.61,0,1.23-.16,1.86-.47,1.11-.55,1.87-1.38,2.27-2.45.4-1.09.32-2.21-.24-3.33l-40.67-84.78ZM137.29,115.07h-43.77l21.88-45.32,21.88,45.32Z"/>
      <path class="cls-13" d="M184.01,94.8c1.48-1.48,3.22-2.67,5.17-3.54,3.88-1.73,8.76-1.73,12.65,0,1.96.87,3.7,2.06,5.17,3.54.9.9,1.96,1.33,3.11,1.27,1.12-.06,2.14-.53,3.02-1.41.89-.89,1.34-1.9,1.34-3s-.45-2.11-1.34-3c-2.26-2.26-4.92-4.06-7.89-5.33-2.98-1.28-6.25-1.92-9.74-1.92s-6.65.65-9.67,1.92c-3.02,1.27-5.7,3.07-7.96,5.33-2.26,2.26-4.06,4.94-5.33,7.96-1.27,3.02-1.92,6.27-1.92,9.67s.65,6.64,1.92,9.67c1.27,3.02,3.07,5.7,5.33,7.96,2.26,2.26,4.94,4.06,7.96,5.33,3.02,1.27,6.27,1.92,9.67,1.92s6.76-.65,9.74-1.92c2.97-1.27,5.62-3.06,7.89-5.33.89-.89,1.34-1.9,1.34-3s-.45-2.11-1.34-3c-1.78-1.79-4.21-1.79-5.99,0-3.12,3.12-7.03,4.7-11.63,4.7-2.25,0-4.38-.44-6.32-1.3-1.96-.87-3.7-2.06-5.17-3.54-1.48-1.48-2.67-3.22-3.54-5.17-.86-1.94-1.3-4.07-1.3-6.32s.44-4.38,1.3-6.32c.87-1.96,2.06-3.7,3.54-5.17Z"/>
      <path class="cls-13" d="M242.68,94.8c1.48-1.48,3.22-2.67,5.17-3.54,3.88-1.73,8.76-1.73,12.65,0,1.96.87,3.7,2.06,5.17,3.54.9.9,1.96,1.33,3.11,1.27,1.12-.06,2.14-.53,3.02-1.41.89-.89,1.34-1.9,1.34-3s-.45-2.11-1.34-3c-2.26-2.26-4.92-4.06-7.89-5.33-2.98-1.28-6.25-1.92-9.74-1.92s-6.65.65-9.67,1.92c-3.02,1.27-5.7,3.07-7.96,5.33-2.26,2.26-4.06,4.94-5.33,7.96-1.27,3.02-1.92,6.27-1.92,9.67s.65,6.64,1.92,9.67c1.27,3.02,3.07,5.7,5.33,7.96,2.26,2.26,4.94,4.06,7.96,5.33,3.02,1.27,6.27,1.92,9.67,1.92s6.76-.65,9.74-1.92c2.97-1.27,5.62-3.06,7.89-5.33.89-.89,1.34-1.9,1.34-3s-.45-2.11-1.34-3c-1.78-1.79-4.21-1.79-5.99,0-3.12,3.12-7.03,4.7-11.63,4.7-2.25,0-4.38-.44-6.32-1.3-1.96-.87-3.7-2.06-5.17-3.54-1.48-1.48-2.67-3.22-3.54-5.17-.86-1.94-1.3-4.07-1.3-6.32s.44-4.38,1.3-6.32c.87-1.96,2.06-3.7,3.54-5.17Z"/>
      <path class="cls-13" d="M330.7,122.21h-28.7v-35.98c0-1.24-.41-2.26-1.23-3.02-.8-.74-1.82-1.12-3.04-1.12s-2.27.41-3.06,1.21c-.8.8-1.21,1.83-1.21,3.07v39.84c0,1.23.41,2.26,1.21,3.07.8.8,1.83,1.21,3.07,1.21h32.97c1.22,0,2.25-.38,3.04-1.12.82-.76,1.23-1.77,1.23-3.02s-.41-2.26-1.23-3.02c-.8-.74-1.82-1.12-3.04-1.12Z"/>
      <path class="cls-13" d="M352.69,81.82c-1.23,0-2.27.41-3.06,1.21-.8.8-1.21,1.83-1.21,3.07v40.39c0,1.23.41,2.26,1.21,3.07.8.8,1.83,1.21,3.07,1.21s2.27-.41,3.07-1.21h0c.8-.8,1.21-1.83,1.21-3.07v-40.39c0-1.23-.41-2.26-1.21-3.06-.8-.8-1.83-1.21-3.07-1.21Z"/>
      <path class="cls-13" d="M427.43,81.82c-.89,0-1.58.15-2.12.45-.48.27-1.1.78-1.91,1.59l-16.16,16.43-16.17-16.43c-.79-.79-1.42-1.31-1.9-1.58-.54-.3-1.24-.45-2.13-.45-1.23,0-2.27.41-3.06,1.21-.8.8-1.21,1.83-1.21,3.07v40.39c0,1.23.41,2.26,1.21,3.07.8.8,1.83,1.21,3.07,1.21s2.27-.41,3.07-1.21c.8-.8,1.21-1.83,1.21-3.07v-30.11l12.03,12.16c.79.79,1.42,1.31,1.9,1.58.54.3,1.24.45,2.12.45s1.58-.15,2.13-.45c.48-.27,1.1-.79,1.91-1.59l11.75-12.12v30.08c0,1.23.41,2.26,1.21,3.07.8.8,1.83,1.21,3.07,1.21s2.27-.41,3.07-1.21c.8-.8,1.21-1.83,1.21-3.07v-40.39c0-1.24-.41-2.27-1.21-3.06-.8-.8-1.83-1.21-3.07-1.21Z"/>
      <path class="cls-13" d="M494.75,122.21h-28.7v-12.34h21.83c1.22,0,2.24-.37,3.04-1.12.82-.76,1.23-1.77,1.23-3.02s-.41-2.26-1.23-3.02c-.8-.74-1.82-1.12-3.04-1.12h-21.83v-11.24h28.7c1.22,0,2.24-.37,3.04-1.12.82-.76,1.23-1.77,1.23-3.02s-.41-2.26-1.23-3.02c-.8-.74-1.82-1.12-3.04-1.12h-32.97c-1.23,0-2.27.41-3.06,1.21-.8.8-1.21,1.83-1.21,3.07v39.84c0,1.23.41,2.26,1.21,3.07.8.8,1.83,1.21,3.07,1.21h32.97c1.22,0,2.25-.38,3.04-1.12.82-.76,1.23-1.77,1.23-3.02s-.41-2.26-1.23-3.02c-.8-.74-1.82-1.12-3.04-1.12Z"/>
    </g>
    <path class="cls-10" d="M530.04,142.45c-1.21-1.21-2.73-1.83-4.51-1.83s-3.29.62-4.45,1.84c-1.16,1.21-1.74,2.72-1.74,4.5s.59,3.27,1.76,4.44c1.17,1.17,2.66,1.76,4.44,1.76s3.29-.59,4.5-1.75c1.22-1.17,1.84-2.66,1.84-4.45s-.61-3.3-1.82-4.51Z"/>
  </g>
  <path class="cls-9" d="M28.15,55.14l-.69-2.32c-.03-.09-.07-.17-.11-.25-.04-.08-.1-.16-.15-.24-.06-.07-.12-.15-.18-.21-.07-.07-.14-.13-.21-.18-.07-.06-.15-.11-.24-.15-.08-.04-.16-.08-.25-.12l-2.32-.69,2.32-.69c.08-.03.17-.07.25-.11.08-.04.16-.1.24-.15.07-.06.15-.12.21-.18.07-.07.13-.14.18-.21.06-.07.11-.15.15-.24.04-.08.08-.16.11-.25l.69-2.32.69,2.32c.03.09.07.17.12.25.05.08.1.16.15.24.06.07.12.15.18.21.07.07.14.13.21.18.07.06.15.11.24.15.08.04.16.08.25.11l2.32.69-2.32.69c-.09.03-.17.07-.25.11-.08.05-.16.1-.24.15-.07.06-.15.12-.21.18-.07.07-.13.14-.18.21s-.11.15-.15.24c-.04.08-.08.16-.12.25l-.69,2.32Z"/>
  <path class="cls-9" d="M98.36,16.75l-.42-1.43c-.02-.05-.04-.1-.07-.15-.03-.05-.06-.1-.09-.14-.03-.05-.07-.09-.11-.13-.04-.04-.08-.08-.13-.11-.05-.03-.09-.07-.14-.09-.05-.03-.1-.05-.15-.07l-1.43-.42,1.43-.42c.05-.02.1-.04.15-.07.05-.03.1-.06.14-.09.05-.03.09-.07.13-.11.04-.04.08-.08.11-.13.03-.05.07-.09.09-.14.03-.05.05-.1.07-.15l.42-1.43.42,1.43c.02.05.04.1.07.15.03.05.06.1.09.14.03.05.07.09.11.13.04.04.08.08.13.11.05.03.09.07.14.09.05.03.1.05.15.07l1.43.42-1.43.42c-.05.02-.1.04-.15.07-.05.03-.1.06-.14.09-.05.03-.09.07-.13.11-.04.04-.08.08-.11.13s-.07.09-.09.14c-.03.05-.05.1-.07.15l-.42,1.43Z"/>
  <path class="cls-9" d="M237.4,35.62l-.52-1.76c-.02-.06-.05-.13-.09-.19-.03-.06-.07-.12-.12-.18-.04-.06-.09-.11-.14-.16-.05-.05-.1-.1-.16-.14-.06-.04-.12-.08-.18-.12-.06-.03-.12-.06-.19-.09l-1.76-.52,1.76-.52c.06-.02.13-.05.19-.09.06-.03.12-.07.18-.12.06-.04.11-.09.16-.14.05-.05.1-.1.14-.16.04-.06.08-.12.12-.18.03-.06.06-.12.09-.19l.52-1.76.52,1.76c.02.06.05.13.09.19.03.06.07.12.12.18.04.06.09.11.14.16.05.05.1.1.16.14.06.04.12.08.18.12.06.03.12.06.19.09l1.76.52-1.76.52c-.06.02-.13.05-.19.09-.06.03-.12.07-.18.12-.06.04-.11.09-.16.14-.05.05-.1.1-.14.16s-.08.12-.12.18c-.03.06-.06.12-.09.19l-.52,1.76Z"/>
  <path class="cls-9" d="M373.93,21.86l-.69-2.32c-.03-.09-.07-.17-.11-.25-.04-.08-.1-.16-.15-.24-.06-.07-.12-.15-.18-.21-.07-.07-.14-.13-.21-.18-.07-.06-.15-.11-.24-.15-.08-.04-.16-.08-.25-.12l-2.32-.69,2.32-.69c.08-.03.17-.07.25-.11.08-.04.16-.1.24-.15.07-.06.15-.12.21-.18.07-.07.13-.14.18-.21.06-.07.11-.15.15-.24.04-.08.08-.16.11-.25l.69-2.32.69,2.32c.03.09.07.17.12.25.05.08.1.16.15.24.06.07.12.15.18.21.07.07.14.13.21.18.07.06.15.11.24.15.08.04.16.08.25.11l2.32.69-2.32.69c-.09.03-.17.07-.25.11-.08.05-.16.1-.24.15-.07.06-.15.12-.21.18-.07.07-.13.14-.18.21s-.11.15-.15.24c-.04.08-.08.16-.12.25l-.69,2.32Z"/>
  <path class="cls-9" d="M555.15,46.04l-1.04-3.52c-.05-.13-.11-.25-.17-.38-.07-.12-.15-.24-.23-.36-.08-.11-.18-.22-.28-.32-.1-.1-.21-.19-.32-.28-.11-.08-.23-.16-.36-.23-.12-.07-.25-.12-.38-.17l-3.52-1.04,3.52-1.04c.13-.05.25-.11.38-.17.12-.07.24-.15.36-.23.11-.08.22-.18.32-.28.1-.1.19-.21.28-.32.08-.11.16-.23.23-.36.07-.12.12-.25.17-.38l1.04-3.52,1.04,3.52c.05.13.11.26.17.38.07.12.15.24.23.36.08.11.18.22.28.32.1.1.21.19.32.28.11.08.23.16.36.23.12.07.25.12.38.17l3.52,1.04-3.52,1.04c-.13.05-.26.11-.38.17-.12.07-.24.15-.36.23-.11.08-.22.18-.32.28-.1.1-.19.21-.28.32s-.16.23-.23.36c-.07.12-.12.25-.17.38l-1.04,3.52Z"/>
  <g>
    <path class="cls-2" d="M29.93,180.97h-2.06c-.15,0-.28.16-.28.35v8.47c0,.19.13.35.28.35h2.06c.16,0,.28-.16.28-.35v-8.47c0-.19-.13-.35-.28-.35Z"/>
    <path class="cls-5" d="M33.13,185.24h-.01c-1.6-.05-3.02-.75-4.21-1.43-1.19.68-2.61,1.38-4.21,1.43-.19,0-.37-.11-.44-.28-.08-.18-.04-.39.1-.52.3-.3.52-.59.67-.88-1.55.06-3.02-.13-4.37-.57-.19-.06-.31-.22-.32-.42-.01-.2.1-.38.28-.46,1.09-.48,2.16-1.15,3.17-2.01-.68.08-1.32.06-1.91-.08-.19-.04-.33-.19-.36-.38-.03-.19.06-.38.22-.48,1.4-.84,2.37-1.65,2.95-2.48-.49.09-.94.07-1.37-.05-.17-.05-.3-.19-.33-.37-.03-.18.05-.36.2-.47,1.41-.96,2.54-2.06,3.34-3.29-.53.09-1.06.07-1.59-.05-.18-.04-.32-.19-.36-.37-.03-.18.04-.37.2-.47.94-.64,1.74-1.55,2.38-2.72-.41.05-.83.04-1.25-.03-.18-.03-.32-.15-.38-.31-.06-.17-.02-.35.11-.48.98-1.02,1.88-2.5,2.83-4.67.07-.17.24-.28.43-.28s.35.11.43.28c.95,2.17,1.85,3.65,2.83,4.67.12.13.16.31.11.48s-.2.29-.38.31c-.43.06-.85.07-1.25.03.64,1.17,1.44,2.08,2.38,2.72.15.1.23.29.2.47-.04.18-.18.33-.36.37-.53.12-1.07.14-1.59.05.81,1.23,1.93,2.33,3.34,3.29.15.1.23.29.2.47-.03.18-.15.32-.33.37-.43.12-.88.14-1.37.05.58.83,1.55,1.64,2.95,2.48.16.1.25.29.22.48-.03.19-.17.34-.36.38-.6.14-1.24.16-1.91.08,1.02.85,2.08,1.53,3.17,2.01.18.08.29.26.28.46,0,.19-.14.36-.32.42-1.35.43-2.82.62-4.37.57.14.29.36.58.67.88.14.14.18.34.1.52-.07.17-.24.28-.43.28ZM28.86,183.79h0Z"/>
  </g>
  <g>
    <path class="cls-2" d="M20.05,183.17h-2.06c-.15,0-.28.16-.28.35v8.47c0,.19.13.35.28.35h2.06c.16,0,.28-.16.28-.35v-8.47c0-.19-.13-.35-.28-.35Z"/>
    <path class="cls-6" d="M23.24,187.45h-.01c-1.6-.05-3.02-.75-4.21-1.43-1.19.68-2.61,1.38-4.21,1.43-.19,0-.37-.11-.44-.28-.08-.18-.04-.39.1-.52.3-.3.52-.59.67-.88-1.55.06-3.02-.13-4.37-.57-.19-.06-.31-.22-.32-.42-.01-.2.1-.38.28-.46,1.09-.48,2.16-1.15,3.17-2.01-.68.08-1.32.06-1.91-.08-.19-.04-.33-.19-.36-.38-.03-.19.06-.38.22-.48,1.4-.84,2.37-1.65,2.95-2.48-.49.09-.94.07-1.37-.05-.17-.05-.3-.19-.33-.37-.03-.18.05-.36.2-.47,1.41-.96,2.54-2.06,3.34-3.29-.53.09-1.06.07-1.59-.05-.18-.04-.32-.19-.36-.37-.03-.18.04-.37.2-.47.94-.64,1.74-1.55,2.38-2.72-.41.05-.83.04-1.25-.03-.18-.03-.32-.15-.38-.31-.06-.17-.02-.35.11-.48.98-1.02,1.88-2.5,2.83-4.67.07-.17.24-.28.43-.28s.35.11.43.28c.95,2.17,1.85,3.65,2.83,4.67.12.13.16.31.11.48s-.2.29-.38.31c-.43.06-.85.07-1.25.03.64,1.17,1.44,2.08,2.38,2.72.15.1.23.29.2.47-.04.18-.18.33-.36.37-.53.12-1.07.14-1.59.05.81,1.23,1.93,2.33,3.34,3.29.15.1.23.29.2.47-.03.18-.15.32-.33.37-.43.12-.88.14-1.37.05.58.83,1.55,1.64,2.95,2.48.16.1.25.29.22.48-.03.19-.17.34-.36.38-.6.14-1.24.16-1.91.08,1.02.85,2.08,1.53,3.17,2.01.18.08.29.26.28.46,0,.19-.14.36-.32.42-1.35.43-2.82.62-4.37.57.14.29.36.58.67.88.14.14.18.34.1.52-.07.17-.24.28-.43.28ZM18.97,185.99h0Z"/>
  </g>
  <g>
    <path class="cls-8" d="M101.58,170.21h-1.24c-.09,0-.17.09-.17.21v5.1c0,.12.08.21.17.21h1.24c.09,0,.17-.09.17-.21v-5.1c0-.12-.08-.21-.17-.21Z"/>
    <path class="cls-8" d="M103.5,172.79h0c-.96-.03-1.82-.45-2.53-.86-.71.41-1.57.83-2.53.86-.12,0-.22-.06-.27-.17-.05-.11-.02-.23.06-.31.18-.18.31-.35.4-.53-.93.03-1.82-.08-2.63-.34-.11-.04-.19-.13-.19-.25,0-.12.06-.23.17-.28.66-.29,1.3-.69,1.91-1.21-.41.05-.79.03-1.15-.05-.11-.03-.2-.12-.21-.23-.02-.11.03-.23.13-.29.84-.5,1.43-.99,1.77-1.49-.29.05-.56.04-.82-.03-.1-.03-.18-.12-.2-.22-.02-.11.03-.22.12-.28.85-.57,1.53-1.24,2.01-1.98-.32.05-.64.04-.96-.03-.11-.02-.19-.11-.22-.22-.02-.11.03-.22.12-.28.57-.38,1.05-.93,1.43-1.64-.24.03-.5.02-.75-.02-.11-.02-.19-.09-.23-.19-.03-.1,0-.21.07-.29.59-.61,1.13-1.5,1.7-2.81.05-.1.15-.17.26-.17s.21.07.26.17c.57,1.3,1.11,2.19,1.71,2.81.07.08.1.19.06.29s-.12.17-.23.19c-.26.04-.51.04-.75.02.38.7.87,1.25,1.43,1.64.09.06.14.17.12.28-.02.11-.11.2-.22.22-.32.07-.64.08-.96.03.48.74,1.16,1.4,2.01,1.98.09.06.14.17.12.28-.02.11-.09.19-.2.22-.26.07-.53.08-.82.03.35.5.93.99,1.77,1.49.1.06.15.17.13.29-.02.11-.1.21-.21.23-.36.08-.74.1-1.15.05.61.51,1.25.92,1.91,1.21.11.05.18.16.17.28,0,.12-.08.22-.19.25-.81.26-1.7.37-2.63.34.09.17.22.35.4.53.08.08.11.21.06.31-.04.1-.15.17-.26.17ZM100.93,171.91h0Z"/>
  </g>
  <g>
    <path class="cls-8" d="M510.09,194.24h-1.24c-.09,0-.17.09-.17.21v5.1c0,.12.08.21.17.21h1.24c.09,0,.17-.09.17-.21v-5.1c0-.12-.08-.21-.17-.21Z"/>
    <path class="cls-8" d="M512.01,196.81h0c-.96-.03-1.82-.45-2.53-.86-.71.41-1.57.83-2.53.86-.12,0-.22-.06-.27-.17-.05-.11-.02-.23.06-.31.18-.18.31-.35.4-.53-.93.03-1.82-.08-2.63-.34-.11-.04-.19-.13-.19-.25,0-.12.06-.23.17-.28.66-.29,1.3-.69,1.91-1.21-.41.05-.79.03-1.15-.05-.11-.03-.2-.12-.21-.23-.02-.11.03-.23.13-.29.84-.5,1.43-.99,1.77-1.49-.29.05-.56.04-.82-.03-.1-.03-.18-.12-.2-.22-.02-.11.03-.22.12-.28.85-.57,1.53-1.24,2.01-1.98-.32.05-.64.04-.96-.03-.11-.02-.19-.11-.22-.22-.02-.11.03-.22.12-.28.57-.38,1.05-.93,1.43-1.64-.24.03-.5.02-.75-.02-.11-.02-.19-.09-.23-.19-.03-.1,0-.21.07-.29.59-.61,1.13-1.5,1.7-2.81.05-.1.15-.17.26-.17s.21.07.26.17c.57,1.3,1.11,2.19,1.71,2.81.07.08.1.19.06.29s-.12.17-.23.19c-.26.04-.51.04-.75.02.38.7.87,1.25,1.43,1.64.09.06.14.17.12.28-.02.11-.11.2-.22.22-.32.07-.64.08-.96.03.48.74,1.16,1.4,2.01,1.98.09.06.14.17.12.28-.02.11-.09.19-.2.22-.26.07-.53.08-.82.03.35.5.93.99,1.77,1.49.1.06.15.17.13.29-.02.11-.1.21-.21.23-.36.08-.74.1-1.15.05.61.51,1.25.92,1.91,1.21.11.05.18.16.17.28,0,.12-.08.22-.19.25-.81.26-1.7.37-2.63.34.09.17.22.35.4.53.08.08.11.21.06.31-.04.1-.15.17-.26.17ZM509.44,195.93h0Z"/>
  </g>
  <g>
    <path class="cls-5" d="M136.88,170.94h-.79c-.06,0-.11.06-.11.13v3.25c0,.07.05.13.11.13h.79c.06,0,.11-.06.11-.13v-3.25c0-.07-.05-.13-.11-.13Z"/>
    <path class="cls-5" d="M138.1,172.58h0c-.61-.02-1.16-.29-1.62-.55-.46.26-1,.53-1.62.55-.07,0-.14-.04-.17-.11-.03-.07-.01-.15.04-.2.12-.11.2-.23.26-.34-.59.02-1.16-.05-1.68-.22-.07-.02-.12-.09-.12-.16,0-.08.04-.15.11-.18.42-.18.83-.44,1.22-.77-.26.03-.51.02-.73-.03-.07-.02-.13-.07-.14-.15-.01-.07.02-.14.09-.18.54-.32.91-.63,1.13-.95-.19.03-.36.03-.53-.02-.07-.02-.11-.07-.13-.14-.01-.07.02-.14.08-.18.54-.37.97-.79,1.28-1.26-.2.03-.41.03-.61-.02-.07-.02-.12-.07-.14-.14-.01-.07.02-.14.08-.18.36-.24.67-.6.91-1.04-.16.02-.32.01-.48-.01-.07-.01-.12-.06-.14-.12-.02-.06,0-.13.04-.18.38-.39.72-.96,1.09-1.79.03-.07.09-.11.16-.11s.14.04.16.11c.37.83.71,1.4,1.09,1.79.05.05.06.12.04.18s-.08.11-.14.12c-.16.02-.33.03-.48.01.25.45.55.8.91,1.04.06.04.09.11.08.18-.01.07-.07.13-.14.14-.2.05-.41.05-.61.02.31.47.74.9,1.28,1.26.06.04.09.11.08.18-.01.07-.06.12-.13.14-.17.05-.34.05-.53.02.22.32.59.63,1.13.95.06.04.1.11.09.18-.01.07-.07.13-.14.15-.23.05-.48.06-.73.03.39.33.8.59,1.22.77.07.03.11.1.11.18,0,.07-.05.14-.12.16-.52.17-1.08.24-1.68.22.06.11.14.22.26.34.05.05.07.13.04.2-.03.07-.09.11-.16.11ZM136.46,172.02h0Z"/>
  </g>
  <g>
    <path class="cls-5" d="M526.14,191.81h-.79c-.06,0-.11.06-.11.13v3.25c0,.07.05.13.11.13h.79c.06,0,.11-.06.11-.13v-3.25c0-.07-.05-.13-.11-.13Z"/>
    <path class="cls-5" d="M527.36,193.45h0c-.61-.02-1.16-.29-1.62-.55-.46.26-1,.53-1.62.55-.07,0-.14-.04-.17-.11-.03-.07-.01-.15.04-.2.12-.11.2-.23.26-.34-.59.02-1.16-.05-1.68-.22-.07-.02-.12-.09-.12-.16,0-.08.04-.15.11-.18.42-.18.83-.44,1.22-.77-.26.03-.51.02-.73-.03-.07-.02-.13-.07-.14-.15-.01-.07.02-.14.09-.18.54-.32.91-.63,1.13-.95-.19.03-.36.03-.53-.02-.07-.02-.11-.07-.13-.14-.01-.07.02-.14.08-.18.54-.37.97-.79,1.28-1.26-.2.03-.41.03-.61-.02-.07-.02-.12-.07-.14-.14-.01-.07.02-.14.08-.18.36-.24.67-.6.91-1.04-.16.02-.32.01-.48-.01-.07-.01-.12-.06-.14-.12-.02-.06,0-.13.04-.18.38-.39.72-.96,1.09-1.79.03-.07.09-.11.16-.11s.14.04.16.11c.37.83.71,1.4,1.09,1.79.05.05.06.12.04.18s-.08.11-.14.12c-.16.02-.33.03-.48.01.25.45.55.8.91,1.04.06.04.09.11.08.18-.01.07-.07.13-.14.14-.2.05-.41.05-.61.02.31.47.74.9,1.28,1.26.06.04.09.11.08.18-.01.07-.06.12-.13.14-.17.05-.34.05-.53.02.22.32.59.63,1.13.95.06.04.1.11.09.18-.01.07-.07.13-.14.15-.23.05-.48.06-.73.03.39.33.8.59,1.22.77.07.03.11.1.11.18,0,.07-.05.14-.12.16-.52.17-1.08.24-1.68.22.06.11.14.22.26.34.05.05.07.13.04.2-.03.07-.09.11-.16.11ZM525.72,192.89h0Z"/>
  </g>
  <g>
    <path class="cls-17" d="M570.78,182.54h-1.57c-.12,0-.21.12-.21.26v6.47c0,.15.1.26.21.26h1.57c.12,0,.21-.12.21-.26v-6.47c0-.15-.1-.26-.21-.26Z"/>
    <path class="cls-17" d="M573.22,185.81h-.01c-1.22-.04-2.31-.57-3.22-1.09-.91.52-2,1.05-3.22,1.09-.15,0-.28-.08-.34-.22-.06-.14-.03-.29.08-.4.23-.23.4-.45.51-.67-1.18.04-2.31-.1-3.34-.43-.14-.05-.24-.17-.25-.32,0-.15.08-.29.22-.35.83-.37,1.65-.88,2.43-1.53-.52.06-1.01.04-1.46-.06-.14-.03-.25-.15-.27-.29-.02-.15.04-.29.17-.36,1.07-.64,1.81-1.26,2.25-1.89-.37.07-.72.06-1.05-.04-.13-.04-.23-.15-.25-.28-.02-.14.04-.28.15-.36,1.08-.73,1.94-1.57,2.55-2.51-.4.07-.81.05-1.22-.04-.14-.03-.25-.14-.27-.28-.03-.14.03-.28.15-.36.72-.49,1.33-1.18,1.82-2.08-.31.03-.63.03-.96-.02-.13-.02-.24-.11-.29-.24-.04-.13-.01-.27.08-.37.75-.78,1.44-1.91,2.17-3.57.06-.13.19-.21.33-.21s.27.08.33.21c.73,1.65,1.42,2.79,2.17,3.57.09.1.13.24.08.37s-.15.22-.29.24c-.33.05-.65.06-.96.02.49.89,1.1,1.59,1.82,2.08.12.08.18.22.15.36-.03.14-.13.25-.27.28-.41.09-.82.1-1.22.04.62.94,1.47,1.78,2.55,2.51.12.08.18.22.15.36-.02.14-.12.25-.25.28-.33.09-.67.11-1.05.04.44.63,1.18,1.26,2.25,1.89.13.08.19.22.17.36-.02.15-.13.26-.27.29-.46.1-.95.13-1.46.06.78.65,1.59,1.17,2.43,1.53.14.06.22.2.22.35,0,.15-.1.27-.25.32-1.03.33-2.15.48-3.34.43.11.22.28.44.51.67.11.1.14.26.08.4-.06.13-.18.22-.33.22ZM569.96,184.69h0Z"/>
  </g>
  <path class="cls-4" d="M-134.07,255.44c32.66-20.72,84.57-48.54,153.33-65.33,35.5-8.67,94.05-22.39,168.44-12,87.18,12.17,150.89,51.13,186.22,77.33"/>
  <g>
    <path class="cls-16" d="M445.32,200.33h0c-.85,0-1.53-.69-1.53-1.53v-7.61h3.06v7.61c0,.85-.69,1.53-1.53,1.53Z"/>
    <rect class="cls-1" x="445.21" y="169.77" width=".22" height="4.24"/>
    <path class="cls-14" d="M443.79,196.59c.51.04,1.02.06,1.53.05.51,0,1.02-.02,1.53-.05v-5.39h-3.06v5.39Z"/>
    <path class="cls-3" d="M445.62,167.43l.51,1.04c.05.1.14.16.25.18l1.15.17c.27.04.38.37.18.56l-.83.81c-.08.08-.11.18-.09.29l.2,1.15c.05.27-.23.47-.47.35l-1.03-.54c-.1-.05-.21-.05-.3,0l-1.03.54c-.24.13-.52-.08-.47-.35l.2-1.15c.02-.11-.02-.21-.09-.29l-.83-.81c-.19-.19-.09-.52.18-.56l1.15-.17c.11-.02.2-.08.25-.18l.51-1.04c.12-.24.47-.24.59,0Z"/>
    <path class="cls-7" d="M444.44,179.21c-3.11,4.21-6.88,7.73-11.27,10.61-.74.49-.73,1.67.02,2.15,4,2.54,8.05,3.81,12.13,3.8,4.08.02,8.13-1.26,12.13-3.8.75-.47.76-1.66.02-2.15-4.39-2.88-8.16-6.4-11.27-10.61-.45-.61-1.31-.61-1.76,0Z"/>
    <path class="cls-15" d="M445.32,177.97c-2.46,3.58-5.37,6.69-8.71,9.35,2.88,1.56,5.78,2.34,8.71,2.33,2.93.01,5.83-.77,8.71-2.33-3.34-2.66-6.25-5.77-8.71-9.35Z"/>
    <path class="cls-7" d="M444.64,175.7c-2.22,3-4.91,5.52-8.04,7.58-.57.38-.56,1.29.01,1.66,2.87,1.8,5.77,2.71,8.71,2.7,2.93.01,5.83-.9,8.71-2.7.58-.36.59-1.28.01-1.66-3.13-2.06-5.82-4.58-8.04-7.58-.35-.47-1.01-.47-1.36,0Z"/>
    <path class="cls-15" d="M445.32,174.75c-1.57,2.28-3.39,4.3-5.45,6.07,1.8.86,3.62,1.29,5.45,1.28,1.83,0,3.65-.42,5.45-1.28-2.06-1.77-3.88-3.79-5.45-6.07Z"/>
    <path class="cls-7" d="M444.67,172.44c-1.41,1.84-3.07,3.41-4.98,4.72-.56.38-.52,1.28.06,1.62,1.84,1.08,3.7,1.62,5.58,1.61,1.88,0,3.74-.53,5.58-1.61.58-.34.61-1.24.06-1.62-1.91-1.31-3.58-2.88-4.98-4.72-.34-.44-.96-.44-1.3,0Z"/>
    <circle class="cls-1" cx="449.59" cy="176.21" r=".55"/>
    <circle class="cls-1" cx="446.9" cy="177.69" r=".55"/>
    <circle class="cls-1" cx="443.6" cy="178.5" r=".55"/>
    <circle class="cls-1" cx="440.35" cy="178.67" r=".55"/>
    <circle class="cls-1" cx="452.01" cy="182.29" r=".55"/>
    <circle class="cls-1" cx="449.31" cy="183.77" r=".55"/>
    <circle class="cls-1" cx="445.95" cy="184.59" r=".55"/>
    <circle class="cls-1" cx="442.84" cy="184.9" r=".55"/>
    <circle class="cls-1" cx="439.8" cy="184.51" r=".55"/>
    <circle class="cls-1" cx="437.17" cy="183.25" r=".55"/>
    <circle class="cls-1" cx="454.84" cy="188.27" r=".55"/>
    <circle class="cls-1" cx="452.48" cy="190.25" r=".55"/>
    <circle class="cls-1" cx="449.34" cy="191.7" r=".55"/>
    <circle class="cls-1" cx="446.35" cy="192.62" r=".55"/>
    <circle class="cls-1" cx="443.07" cy="192.83" r=".55"/>
    <circle class="cls-1" cx="439.96" cy="192.18" r=".55"/>
    <circle class="cls-1" cx="436.98" cy="191.12" r=".55"/>
    <circle class="cls-1" cx="434.17" cy="189.54" r=".55"/>
    <path class="cls-10" d="M447.71,169.37c.19-.19.09-.52-.18-.56l-1.15-.17c-.11-.02-.2-.08-.25-.18l-.51-1.04c-.08-.17-.28-.22-.43-.15.27.51.43,1.15.43,1.85,0,1.1-.41,2.07-1.02,2.6l.56-.3c.1-.05.21-.05.3,0l1.03.54c.24.13.52-.08.47-.35l-.2-1.15c-.02-.11.02-.21.09-.29l.83-.81Z"/>
  </g>
  <path class="cls-4" d="M695.27,224.28c-21.57-13.07-80.21-44.01-160.24-31.01-99.3,16.14-162.84,88.78-179.11,108.48"/>
  <path class="cls-20" d="M45.78,263c62.64-31.33,157.5-67.56,273.78-72,47.17-1.8,113.81-3.66,191.56,27.11,39.02,15.44,68.85,34.36,88.89,48.89"/>
</svg>